<svg width="14" height="14" viewBox="0 0 14 14" fill="none" xmlns="http://www.w3.org/2000/svg">
<path d="M6.95205 9.00037L4.37326 11.5792C4.06104 11.8805 3.64406 12.0489 3.21015 12.0489C2.77623 12.0489 2.35925 11.8805 2.04703 11.5792C1.8939 11.4266 1.7724 11.2454 1.68949 11.0458C1.60659 10.8462 1.56391 10.6322 1.56391 10.416C1.56391 10.1999 1.60659 9.98591 1.68949 9.78631C1.7724 9.58672 1.8939 9.40546 2.04703 9.25293L4.62582 6.67414C4.75098 6.54899 4.82129 6.37924 4.82129 6.20225C4.82129 6.02525 4.75098 5.85551 4.62582 5.73036C4.50067 5.6052 4.33093 5.53489 4.15393 5.53489C3.97694 5.53489 3.80719 5.6052 3.68204 5.73036L1.10325 8.31579C0.58374 8.88126 0.302774 9.62557 0.319027 10.3933C0.33528 11.161 0.647495 11.8927 1.19047 12.4357C1.73345 12.9787 2.4652 13.2909 3.23291 13.3072C4.00062 13.3234 4.74493 13.0425 5.3104 12.5229L7.89584 9.94415C8.02099 9.819 8.0913 9.64926 8.0913 9.47226C8.0913 9.29527 8.02099 9.12552 7.89584 9.00037C7.77068 8.87522 7.60094 8.8049 7.42394 8.8049C7.24695 8.8049 7.07721 8.87522 6.95205 9.00037ZM12.6546 0.971557C12.0955 0.415925 11.3393 0.104065 10.5511 0.104065C9.76282 0.104065 9.00659 0.415925 8.44749 0.971557L5.86205 3.55035C5.80008 3.61232 5.75092 3.68589 5.71738 3.76685C5.68385 3.84782 5.66658 3.9346 5.66658 4.02224C5.66658 4.10988 5.68385 4.19666 5.71738 4.27763C5.75092 4.35859 5.80008 4.43216 5.86205 4.49413C5.92402 4.5561 5.99759 4.60526 6.07855 4.6388C6.15952 4.67233 6.2463 4.6896 6.33394 4.6896C6.42158 4.6896 6.50836 4.67233 6.58933 4.6388C6.67029 4.60526 6.74386 4.5561 6.80583 4.49413L9.38462 1.91534C9.69685 1.61401 10.1138 1.44561 10.5477 1.44561C10.9817 1.44561 11.3986 1.61401 11.7109 1.91534C11.864 2.06787 11.9855 2.24913 12.0684 2.44872C12.1513 2.64832 12.194 2.86232 12.194 3.07846C12.194 3.29459 12.1513 3.50859 12.0684 3.70819C11.9855 3.90778 11.864 4.08904 11.7109 4.24157L9.13206 6.82036C9.06977 6.88215 9.02032 6.95566 8.98658 7.03665C8.95284 7.11764 8.93546 7.20451 8.93546 7.29225C8.93546 7.37999 8.95284 7.46686 8.98658 7.54786C9.02032 7.62885 9.06977 7.70236 9.13206 7.76414C9.19385 7.82644 9.26736 7.87589 9.34835 7.90963C9.42934 7.94337 9.51621 7.96074 9.60395 7.96074C9.69169 7.96074 9.77857 7.94337 9.85956 7.90963C9.94055 7.87589 10.0141 7.82644 10.0758 7.76414L12.6546 5.17871C13.2103 4.6196 13.5221 3.86337 13.5221 3.07513C13.5221 2.28689 13.2103 1.53066 12.6546 0.971557ZM4.77204 8.85415C4.83415 8.91575 4.9078 8.96448 4.98878 8.99756C5.06976 9.03063 5.15647 9.0474 5.24394 9.04689C5.33141 9.0474 5.41812 9.03063 5.49909 8.99756C5.58007 8.96448 5.65373 8.91575 5.71583 8.85415L8.98584 5.58414C9.111 5.45898 9.18131 5.28924 9.18131 5.11224C9.18131 4.93525 9.111 4.76551 8.98584 4.64035C8.86069 4.5152 8.69094 4.44489 8.51395 4.44489C8.33696 4.44489 8.16721 4.5152 8.04206 4.64035L4.77204 7.91036C4.70975 7.97215 4.6603 8.04566 4.62656 8.12665C4.59282 8.20765 4.57545 8.29452 4.57545 8.38226C4.57545 8.47 4.59282 8.55687 4.62656 8.63786C4.6603 8.71885 4.70975 8.79236 4.77204 8.85415Z" fill="url(#paint0_linear_4003:1625)"/>
<defs>
<linearGradient id="paint0_linear_4003:1625" x1="0.318359" y1="0.104065" x2="15.0467" y2="2.02529" gradientUnits="userSpaceOnUse">
<stop stop-color="#4099F7"/>
<stop offset="1" stop-color="#72BCF9"/>
</linearGradient>
</defs>
</svg>
