<svg width="14" height="14" viewBox="0 0 14 14" fill="none" xmlns="http://www.w3.org/2000/svg">
<path d="M12.7496 0.100862H1.49069C1.36413 0.0991043 1.23846 0.122295 1.12086 0.169109C1.00326 0.215924 0.89604 0.285445 0.805313 0.373703C0.714586 0.461961 0.642134 0.567227 0.592094 0.683489C0.542053 0.799751 0.515406 0.924731 0.513672 1.05129V12.4432C0.515406 12.5697 0.542053 12.6947 0.592094 12.811C0.642134 12.9272 0.714586 13.0325 0.805313 13.1208C0.89604 13.209 1.00326 13.2785 1.12086 13.3253C1.23846 13.3722 1.36413 13.3954 1.49069 13.3936H12.7496C12.8762 13.3954 13.0019 13.3722 13.1195 13.3253C13.2371 13.2785 13.3443 13.209 13.435 13.1208C13.5257 13.0325 13.5982 12.9272 13.6482 12.811C13.6983 12.6947 13.7249 12.5697 13.7267 12.4432V1.05129C13.7249 0.924731 13.6983 0.799751 13.6482 0.683489C13.5982 0.567227 13.5257 0.461961 13.435 0.373703C13.3443 0.285445 13.2371 0.215924 13.1195 0.169109C13.0019 0.122295 12.8762 0.0991043 12.7496 0.100862ZM4.52143 11.2269H2.52752V5.24515H4.52143V11.2269ZM3.52448 4.40771C3.24949 4.40771 2.98577 4.29847 2.79132 4.10403C2.59688 3.90958 2.48764 3.64586 2.48764 3.37087C2.48764 3.09589 2.59688 2.83217 2.79132 2.63772C2.98577 2.44328 3.24949 2.33404 3.52448 2.33404C3.67049 2.31748 3.81836 2.33195 3.9584 2.3765C4.09844 2.42105 4.22749 2.49468 4.3371 2.59256C4.44671 2.69044 4.53441 2.81037 4.59446 2.9445C4.6545 3.07862 4.68554 3.22392 4.68554 3.37087C4.68554 3.51783 4.6545 3.66313 4.59446 3.79725C4.53441 3.93138 4.44671 4.05131 4.3371 4.14919C4.22749 4.24707 4.09844 4.3207 3.9584 4.36525C3.81836 4.4098 3.67049 4.42427 3.52448 4.40771ZM11.7128 11.2269H9.71889V8.01669C9.71889 7.21248 9.4331 6.68741 8.70864 6.68741C8.48444 6.68905 8.26612 6.75938 8.08311 6.88891C7.9001 7.01845 7.76119 7.20096 7.6851 7.41187C7.63309 7.56808 7.61055 7.7326 7.61864 7.89705V11.2202H5.62473C5.62473 11.2202 5.62473 5.78351 5.62473 5.2385H7.61864V6.08259C7.79977 5.76829 8.06322 5.50936 8.38061 5.33368C8.69799 5.15801 9.05729 5.07225 9.4198 5.08564C10.7491 5.08564 11.7128 5.94302 11.7128 7.78406V11.2269Z" fill="#3F96F2"/>
</svg>
