<svg width="14" height="12" viewBox="0 0 14 12" fill="none" xmlns="http://www.w3.org/2000/svg">
<path d="M13.3533 1.62652C12.8537 1.84325 12.3254 1.98653 11.7847 2.05189C12.3551 1.71114 12.7825 1.17509 12.9877 0.543161C12.4517 0.862229 11.865 1.08703 11.253 1.2078C10.844 0.7642 10.2993 0.468919 9.7043 0.368263C9.10934 0.267607 8.49781 0.36727 7.9656 0.651623C7.43339 0.935975 7.01061 1.38893 6.76357 1.93945C6.51653 2.48998 6.4592 3.10692 6.60057 3.69354C5.51683 3.63872 4.45675 3.35654 3.48918 2.86531C2.52161 2.37408 1.6682 1.6848 0.984392 0.842247C0.74455 1.26108 0.618522 1.7354 0.618842 2.21805C0.617991 2.66626 0.727987 3.10774 0.939034 3.50316C1.15008 3.89859 1.45563 4.23569 1.82848 4.48446C1.39512 4.47267 0.971023 4.35638 0.592256 4.14549V4.17872C0.595504 4.80673 0.81557 5.41435 1.21523 5.89878C1.61489 6.38322 2.16961 6.71474 2.78556 6.83727C2.54845 6.90943 2.30228 6.94747 2.05446 6.95026C1.88291 6.94826 1.71179 6.9327 1.54269 6.90373C1.71809 7.44396 2.05753 7.91607 2.51377 8.25438C2.97001 8.59269 3.52036 8.78037 4.08825 8.7913C3.12931 9.54584 1.94538 9.95765 0.725184 9.96106C0.503019 9.96179 0.281031 9.94847 0.0605469 9.92119C1.30636 10.7256 2.75818 11.1526 4.24111 11.1508C5.26445 11.1614 6.27964 10.968 7.2274 10.5819C8.17516 10.1958 9.03648 9.62468 9.76106 8.90196C10.4856 8.17924 11.0589 7.31939 11.4475 6.37263C11.836 5.42586 12.032 4.41117 12.024 3.38781C12.024 3.27482 12.024 3.15518 12.024 3.03555C12.5455 2.64661 12.9954 2.16981 13.3533 1.62652Z" fill="#3F96F2"/>
</svg>
