<svg width="33" height="33" viewBox="0 0 33 33" fill="none" xmlns="http://www.w3.org/2000/svg">
<rect x="0.5" y="0.454544" width="32" height="32" rx="8" fill="url(#paint0_linear_3974:3496)"/>
<path fill-rule="evenodd" clip-rule="evenodd" d="M22.5 19.7879C22.5 19.0515 21.903 18.4545 21.1667 18.4545V17.1212C21.1667 16.3848 20.5697 15.7879 19.8333 15.7879H17.1667V14.4545C17.903 14.4545 18.5 13.8576 18.5 13.1212V11.7879C18.5 11.0515 17.903 10.4545 17.1667 10.4545H15.8333C15.097 10.4545 14.5 11.0515 14.5 11.7879V13.1212C14.5 13.8576 15.097 14.4545 15.8333 14.4545V15.7879H13.1667C12.4303 15.7879 11.8333 16.3848 11.8333 17.1212V18.4545C11.097 18.4545 10.5 19.0515 10.5 19.7879V21.1212C10.5 21.8576 11.097 22.4545 11.8333 22.4545H13.1667C13.903 22.4545 14.5 21.8576 14.5 21.1212V19.7879C14.5 19.0515 13.903 18.4545 13.1667 18.4545V17.1212H19.8333V18.4545C19.097 18.4545 18.5 19.0515 18.5 19.7879V21.1212C18.5 21.8576 19.097 22.4545 19.8333 22.4545H21.1667C21.903 22.4545 22.5 21.8576 22.5 21.1212V19.7879ZM11.8333 21.1212V19.7879H13.1667V21.1212H11.8333ZM19.8333 19.7879V21.1212H21.1667V19.7879H19.8333ZM15.8333 13.1212V11.7879H17.1667V13.1212H15.8333Z" fill="white"/>
<defs>
<linearGradient id="paint0_linear_3974:3496" x1="30.3182" y1="0.454545" x2="-2.74446" y2="9.78131" gradientUnits="userSpaceOnUse">
<stop stop-color="#9D7DF7"/>
<stop offset="1" stop-color="#8260F6"/>
</linearGradient>
</defs>
</svg>
