<svg width="33" height="33" viewBox="0 0 33 33" fill="none" xmlns="http://www.w3.org/2000/svg">
<rect x="0.5" y="0.454544" width="32" height="32" rx="8" fill="url(#paint0_linear_3974:3488)"/>
<path fill-rule="evenodd" clip-rule="evenodd" d="M18.4997 14.8872L22.2637 13.4628C22.6081 13.3325 22.9929 13.506 23.1232 13.8503C23.1517 13.9257 23.1663 14.0057 23.1663 14.0863V18.8259C23.1663 19.1941 22.8679 19.4925 22.4997 19.4925C22.4197 19.4925 22.3404 19.4782 22.2656 19.4501L18.4997 18.0379V19.1212C18.4997 19.8576 17.9027 20.4545 17.1663 20.4545H11.1663C10.43 20.4545 9.83301 19.8576 9.83301 19.1212V13.7879C9.83301 13.0515 10.43 12.4545 11.1663 12.4545H17.1663C17.9027 12.4545 18.4997 13.0515 18.4997 13.7879V14.8872Z" fill="white"/>
<defs>
<linearGradient id="paint0_linear_3974:3488" x1="29.25" y1="2.45454" x2="4.75" y2="29.7045" gradientUnits="userSpaceOnUse">
<stop stop-color="#E95B7C"/>
<stop offset="1" stop-color="#DC4660"/>
</linearGradient>
</defs>
</svg>
