<svg width="48" height="18" viewBox="0 0 48 18" fill="none" xmlns="http://www.w3.org/2000/svg">
<path d="M10.1159 15.0765V17.1216H0V15.4808L6.86018 7.37181H0.186039V5.32673H9.8368V6.99133L2.97662 15.0765H10.1159Z" fill="white"/>
<path d="M22.0916 5.32673V17.1216H19.6731V15.7662C18.6033 16.8918 17.208 17.4545 15.4872 17.4545C14.4795 17.4545 13.5338 17.193 12.6501 16.6698C11.7819 16.1466 11.0843 15.4095 10.5572 14.4583C10.03 13.5071 9.76649 12.429 9.76649 11.2242C9.76649 10.0193 10.03 8.94922 10.5572 8.01387C11.0843 7.06267 11.7819 6.32549 12.6501 5.80233C13.5338 5.26331 14.4795 4.99381 15.4872 4.99381C17.208 4.99381 18.6033 5.5566 19.6731 6.68219V5.32673H22.0916ZM15.8825 15.2668C16.5026 15.2668 17.0918 15.1162 17.6499 14.815C18.2235 14.4979 18.6964 14.054 19.0684 13.4833C19.4405 12.8967 19.642 12.2229 19.6731 11.462V10.9864C19.642 10.2413 19.4405 9.58335 19.0684 9.01263C18.6964 8.42606 18.2235 7.97424 17.6499 7.65717C17.0918 7.3401 16.5026 7.18157 15.8825 7.18157C15.1694 7.18157 14.526 7.34803 13.9524 7.68095C13.3942 8.01387 12.9447 8.48947 12.6036 9.10775C12.278 9.71018 12.1152 10.4157 12.1152 11.2242C12.1152 12.0327 12.278 12.7461 12.6036 13.3644C12.9447 13.9668 13.3942 14.4345 13.9524 14.7674C14.526 15.1003 15.1694 15.2668 15.8825 15.2668Z" fill="white"/>
<path d="M35.3603 0V17.1216H32.9185V15.7662C32.4069 16.3052 31.7945 16.7253 31.0814 17.0265C30.3837 17.3119 29.6008 17.4545 28.7326 17.4545C27.7249 17.4545 26.7792 17.193 25.8955 16.6698C25.0274 16.1466 24.3297 15.4095 23.8026 14.4583C23.2755 13.5071 23.0119 12.429 23.0119 11.2242C23.0119 10.0193 23.2755 8.94922 23.8026 8.01387C24.3297 7.06267 25.0274 6.32549 25.8955 5.80233C26.7792 5.26331 27.7249 4.99381 28.7326 4.99381C29.6008 4.99381 30.3837 5.14441 31.0814 5.44563C31.7945 5.73099 32.4069 6.14318 32.9185 6.68219V0H35.3603ZM29.128 15.2668C29.7791 15.2668 30.3915 15.1003 30.9651 14.7674C31.5542 14.4345 32.0271 13.9668 32.3836 13.3644C32.7402 12.7461 32.9185 12.0327 32.9185 11.2242C32.9185 10.4315 32.7402 9.72604 32.3836 9.10775C32.0271 8.48947 31.5542 8.01387 30.9651 7.68095C30.3915 7.34803 29.7791 7.18157 29.128 7.18157C28.4303 7.18157 27.7947 7.34803 27.2211 7.68095C26.6474 8.01387 26.1979 8.48947 25.8723 9.10775C25.5467 9.71018 25.3839 10.4157 25.3839 11.2242C25.3839 12.0327 25.5467 12.7461 25.8723 13.3644C26.1979 13.9668 26.6474 14.4345 27.2211 14.7674C27.7947 15.1003 28.4303 15.2668 29.128 15.2668Z" fill="white"/>
<path d="M48 10.9626V11.8187H38.6516C38.7601 12.8809 39.1554 13.729 39.8375 14.3631C40.5197 14.9973 41.3259 15.3143 42.2561 15.3143C43.6824 15.3143 44.7521 14.815 45.4652 13.8162L47.3954 14.7912C46.8683 15.679 46.1629 16.3448 45.2792 16.7887C44.411 17.2326 43.4033 17.4545 42.2561 17.4545C41.1708 17.4545 40.1709 17.193 39.2562 16.6698C38.3415 16.1466 37.6128 15.4174 37.0702 14.482C36.5276 13.5308 36.2563 12.4528 36.2563 11.248C36.2563 10.0272 36.5199 8.94129 37.047 7.99009C37.5896 7.03889 38.3182 6.30171 39.2329 5.77855C40.1476 5.25539 41.1476 4.99381 42.2328 4.99381C43.256 4.99381 44.2017 5.24746 45.0699 5.75477C45.9381 6.26208 46.628 6.96755 47.1396 7.87119C47.6667 8.77483 47.9457 9.8053 47.9767 10.9626H48ZM42.2328 7.18157C41.4266 7.18157 40.6825 7.43523 40.0003 7.94253C39.3182 8.44984 38.8919 9.15531 38.7213 10.059H45.535C45.3489 9.12361 44.9536 8.41021 44.349 7.91875C43.7599 7.4273 43.0545 7.18157 42.2328 7.18157Z" fill="white"/>
</svg>
